HIERARCHY
ROOT hip
{
	OFFSET 0.000000 0.000000 0.000000 
	CHANNELS 6 Xposition Yposition Zposition Xrotation Zrotation Yrotation
	JOINT abdomen
	{
		OFFSET 0.000000 3.402643 0.000000 
		CHANNELS 3 Xrotation Zrotation Yrotation
		JOINT chest
		{
			OFFSET 0.000000 8.438565 -0.680529 
			CHANNELS 3 Xrotation Zrotation Yrotation
			JOINT neck
			{
				OFFSET 0.000000 10.207942 -0.272212 
				CHANNELS 3 Xrotation Zrotation Yrotation
				JOINT head
				{
					OFFSET 0.000000 3.130431 0.000000 
					CHANNELS 3 Xrotation Zrotation Yrotation
					End Site
					{
						OFFSET 0.000000 3.130435 0.000000 
					}
				}
			}
			JOINT lCollar
			{
				OFFSET 3.470700 6.669187 -0.816635 
				CHANNELS 3 Yrotation Zrotation Xrotation
				JOINT lShldr
				{
					OFFSET 3.198488 0.000000 0.000000 
					CHANNELS 3 Zrotation Yrotation Xrotation
					JOINT lForeArm
					{
						OFFSET 10.139888 0.000000 0.000000 
						CHANNELS 3 Yrotation Zrotation Xrotation
						JOINT lHand
						{
							OFFSET 8.370511 0.000000 0.000000 
							CHANNELS 3 Zrotation Yrotation Xrotation
							End Site
							{
								OFFSET 4.083176 0.000000 0.000000 
							}
						}
					}
				}
			}
			JOINT rCollar
			{
				OFFSET -3.470700 6.669187 -0.816635 
				CHANNELS 3 Yrotation Zrotation Xrotation
				JOINT rShldr
				{
					OFFSET -3.198488 0.000000 0.000000 
					CHANNELS 3 Zrotation Yrotation Xrotation
					JOINT rForeArm
					{
						OFFSET -10.139888 0.000000 0.000000 
						CHANNELS 3 Yrotation Zrotation Xrotation
						JOINT rHand
						{
							OFFSET -8.370511 0.000000 0.000000 
							CHANNELS 3 Zrotation Yrotation Xrotation
							End Site
							{
								OFFSET -4.083176 0.000000 0.000000 
							}
						}
					}
				}
			}
		}
	}
	JOINT lThigh
	{
		OFFSET 5.308129 -1.633274 1.361059 
		CHANNELS 3 Xrotation Zrotation Yrotation
		JOINT lShin
		{
			OFFSET -2.041588 -20.007561 0.000000 
			CHANNELS 3 Xrotation Zrotation Yrotation
			JOINT lFoot
			{
				OFFSET 0.000000 -19.190928 -1.224953 
				CHANNELS 3 Xrotation Yrotation Zrotation
				End Site
				{
					OFFSET 0.000000 -2.449906 4.627600 
				}
			}
		}
	}
	JOINT rThigh
	{
		OFFSET -5.308129 -1.633274 1.361059 
		CHANNELS 3 Xrotation Zrotation Yrotation
		JOINT rShin
		{
			OFFSET 2.041588 -20.007561 0.000000 
			CHANNELS 3 Xrotation Zrotation Yrotation
			JOINT rFoot
			{
				OFFSET 0.000000 -19.190928 -1.224953 
				CHANNELS 3 Xrotation Yrotation Zrotation
				End Site
				{
					OFFSET 0.000000 -2.449906 4.627600 
				}
			}
		}
	}
}
MOTION
Frames: 18
Frame Time: 0.033333
-0.184513 44.785580 -61.167484 3.164063 -2.646484 25.302282 19.140625 4.687500 0.117986 -3.642578 -1.162109 -0.585938 -8.359375 -0.048828 -11.064452 3.095703 5.205078 -11.463957 8.222656 13.857422 0.573833 -110.537109 -64.248047 82.626953 -56.748047 -3.300781 -36.601002 12.519531 8.798827 1.621094 -10.664063 -5.673828 0.166981 70.507813 64.013672 22.529299 59.306641 3.554688 -50.479126 -17.314453 -12.226563 3.230354 -12.902231 6.401113 6.048316 45.262871 -0.891750 -2.671662 -36.748005 0.809009 -6.438131 -31.692135 -11.549219 -9.189193 41.232918 0.348188 2.404378 -9.803226 14.892126 9.659846 
0.031813 44.710056 -60.794334 2.978516 -2.822266 24.774908 18.623047 5.029297 0.186403 -4.531250 -1.513672 -0.429945 -5.556641 0.322266 -10.732421 2.919922 5.195268 -11.112493 9.531250 14.814451 0.585937 -112.148445 -70.654297 81.093750 -61.728519 -3.193359 -36.318359 14.160156 8.681641 1.855469 -12.363282 -6.816406 0.273437 63.378902 70.390625 13.369140 63.935551 3.652344 -51.621716 -17.558592 -12.519532 3.376790 -11.935962 6.469688 5.505744 45.083359 -0.712938 -2.756791 -37.496410 1.874746 -5.777638 -31.256817 -11.238822 -9.126998 42.108936 0.507684 2.531977 -10.801506 14.813688 9.996437 
0.255915 44.620155 -60.325859 2.812500 -2.822266 24.423828 18.271484 5.166016 0.401270 -5.937500 -1.845703 -0.458984 -2.763672 1.044922 -10.410157 2.744141 4.843750 -10.770660 10.781250 15.996095 0.722656 62.666031 -101.162109 -97.734184 -66.279297 -3.144531 -35.018993 16.240234 7.519532 1.886045 -14.599609 -7.978515 0.244141 45.361328 77.470703 -7.822497 68.896484 3.505859 -50.742786 -17.333984 -12.578125 3.230295 -10.834683 6.080663 4.623564 44.923840 -0.722639 -2.577976 -38.218204 3.066962 -5.013359 -31.051037 -10.886985 -8.511289 43.339684 0.331959 2.525287 -12.168186 14.663358 10.380323 
0.479075 44.514820 -59.759838 3.164063 -2.988253 24.247740 17.568359 5.341797 0.430597 -7.343750 -2.363281 -0.312500 -0.136719 1.767579 -10.097349 2.578125 4.492188 -10.604705 12.216798 16.845703 0.837014 22.968752 -92.783203 -63.320293 -69.697266 -3.027344 -31.640110 16.787109 5.351562 1.308594 -17.128906 -9.248047 0.411726 -7.167968 80.820313 -64.472786 73.837891 3.476563 -49.023434 -16.914063 -10.625000 2.713043 -10.187774 5.600598 3.753600 44.560619 -0.540173 -2.857124 -38.569511 4.240351 -3.998527 -31.239656 -11.064272 -7.782084 44.394119 0.156208 2.506770 -14.032618 14.332720 11.078801 
0.676078 44.388275 -59.055824 3.867187 -3.173828 24.414064 16.875000 5.380860 0.274353 -8.925781 -2.177734 -0.517949 2.314453 1.777344 -9.921875 2.041016 4.667969 -10.438658 13.896484 17.158203 0.771484 -91.835938 -98.154297 45.039162 -72.705078 -2.861328 -28.114750 17.568359 3.496094 0.908800 -19.804688 -10.937499 0.480369 -47.666012 74.677734 -110.283554 78.203125 3.505859 -46.914665 -16.269531 -8.232423 1.863836 -9.417624 5.376984 2.674689 43.858219 -0.595538 -2.824431 -39.232342 5.133516 -3.253546 -31.974329 -11.070538 -7.920080 46.303383 -0.136674 2.814166 -15.074439 13.469378 10.769606 
0.853168 44.231686 -58.212566 4.570313 -3.525391 24.589468 16.171875 5.244141 0.068359 -10.849608 -1.640625 -0.556920 5.126953 1.250000 -9.892579 1.337891 5.195312 -10.634765 15.205078 17.656250 0.788053 -101.826164 -106.777344 47.656666 -75.302734 -2.802734 -25.565928 17.519533 2.363281 0.566809 -22.382813 -13.261719 0.500287 -59.619144 65.507813 -128.164063 81.865234 3.359375 -43.974606 -15.976563 -6.562500 1.523438 -8.533477 5.028312 1.424138 43.155041 -0.575971 -2.801874 -39.728836 5.742427 -2.696127 -33.501831 -11.052900 -7.702677 50.359604 -0.009861 2.872570 -14.849155 12.184572 10.280880 
1.020126 44.012772 -57.236500 5.087891 -3.691406 24.960308 15.644529 5.107422 -0.136719 -12.958984 -1.279297 -0.781250 7.597657 0.712891 -10.048707 0.625000 5.888671 -10.830078 16.650391 18.037109 0.944242 -105.712891 -114.443359 44.795792 -77.070313 -2.714844 -23.222193 16.992188 2.539063 0.605469 -24.580078 -15.126953 0.654297 -63.066410 56.376953 -136.757797 84.443359 3.242188 -40.000000 -15.898437 -5.771485 1.180659 -7.546128 5.408142 0.523800 42.622890 -0.744707 -2.663420 -40.405712 6.203439 -2.246549 -35.478374 -11.240504 -7.767220 55.100464 -0.189711 3.021896 -14.095790 11.383120 10.125551 
1.179896 43.715855 -56.140491 5.625000 -3.876953 25.116528 15.292970 4.970704 -0.350716 -14.892577 -0.742188 -0.996220 9.531251 -0.175781 -10.175811 0.449219 6.416016 -10.838751 18.330078 18.222656 0.878906 72.021484 -59.531254 -138.291016 -77.919922 -2.587891 -20.654293 16.816406 2.363281 0.615234 -26.621094 -16.630859 0.673828 -63.369144 48.906250 -141.582031 85.908203 3.085938 -35.156246 -15.341797 -5.302734 1.053787 -6.103412 5.546772 0.323360 42.267982 -0.744935 -3.004498 -41.077469 6.665212 -1.140277 -38.031101 -11.199018 -8.191057 60.536480 -0.704500 3.131814 -12.881088 10.733502 9.446841 
1.338606 43.306648 -54.945522 5.791016 -4.052734 25.136721 14.941406 4.833984 -0.556641 -16.113281 -0.566406 -1.015625 10.761719 -0.527344 -10.156250 0.449219 6.591797 -10.838724 19.335938 18.359375 0.856299 70.986328 -54.765621 -140.810547 -77.675781 -2.441406 -18.349194 16.972658 2.060547 0.430039 -28.222660 -17.363281 0.781250 -62.968750 43.359375 -143.964844 86.777344 3.115234 -31.074215 -15.546875 -5.253906 1.210045 -4.723747 5.914583 -0.054688 42.092186 -0.754578 -2.999159 -42.083694 7.290246 -0.506741 -40.878620 -11.406517 -8.733166 65.985085 -0.894429 3.102223 -12.120945 10.213611 9.245425 
1.503325 42.786690 -53.685730 5.791016 -4.052734 25.136721 14.765624 4.658203 -0.595703 -16.640625 -0.380859 -1.025391 11.289063 -0.878906 -10.136718 0.800781 6.591797 -10.830078 19.707031 18.037109 0.878907 70.732422 -52.119137 -142.597656 -77.421875 -2.480469 -17.450750 16.621094 2.236328 0.459367 -29.042969 -17.695311 0.725624 -61.513676 40.234375 -143.281250 88.046875 2.939453 -29.307140 -16.972656 -5.703125 1.279297 -2.606474 6.385107 -0.432726 42.092186 -0.754577 -2.999158 -43.266941 7.728826 0.228289 -43.900303 -12.302279 -9.202826 69.833351 -1.250019 3.365996 -13.193777 8.476870 8.894599 
1.681829 42.144306 -52.366337 5.449219 -3.701171 24.764996 14.580077 4.482422 -0.644531 -16.640625 -0.380859 -1.201172 11.113281 -1.054688 -10.127132 1.152344 6.425781 -10.644532 19.394531 17.802734 0.888672 70.927734 -52.207031 -143.064362 -77.568359 -2.392578 -17.285156 16.269531 2.070313 0.478519 -28.906248 -17.460936 0.725586 -59.863281 39.111328 -140.429688 88.964844 2.949219 -29.316906 -17.558592 -5.947266 1.581021 -0.185148 6.522517 -0.286607 42.268219 -0.754577 -2.998325 -44.614269 8.422829 0.993124 -47.195419 -13.505131 -9.793386 71.748955 -1.396164 3.484493 -13.573199 6.970674 8.727056 
1.867402 41.409321 -50.997921 5.097657 -3.173828 24.237740 14.580079 4.179688 -0.887960 -16.289064 -0.556641 -1.201174 10.410156 -1.044922 -9.951173 1.503906 6.425781 -10.457891 18.759766 17.675779 0.791016 71.474609 -54.726563 -141.365402 -77.373047 -2.363281 -16.942957 15.888671 0.927734 0.156250 -28.134766 -16.884766 0.666899 -58.740234 40.654297 -136.250000 89.267578 2.958984 -29.141129 -17.480469 -4.990234 1.250000 2.263134 6.992967 0.414993 43.344341 -0.587818 -2.970737 -45.488060 8.512712 1.395013 -51.079697 -14.929801 -9.498255 70.879349 -1.073845 3.517638 -13.311461 6.114295 9.054502 
2.052387 40.630142 -49.567291 4.570313 -2.294922 23.896093 14.755858 3.837891 -0.957031 -15.595702 -1.093750 -1.357608 9.511719 -1.025391 -9.599784 1.503906 6.425781 -10.282109 17.519531 17.773436 0.947266 72.021484 -59.130859 -138.183594 -77.333984 -2.285156 -16.591408 15.527344 0.615234 0.009870 -26.494141 -16.240234 0.735153 -57.207031 44.716797 -130.380859 89.580078 2.958984 -29.501951 -17.314453 -5.351563 1.258837 5.046957 7.156693 1.272616 44.234543 -0.692115 -2.705608 -46.012726 8.687622 1.385249 -55.329353 -16.512859 -9.141095 67.550323 -1.239891 3.274458 -12.089488 5.982286 8.283152 
2.197429 39.857449 -48.054543 4.384766 -1.591797 23.720703 14.931641 3.564453 -1.376953 -15.068358 -1.621094 -1.523714 8.271484 -1.005859 -9.248218 2.031250 6.777344 -9.910957 16.455076 18.369141 0.898438 -107.167969 -114.765617 45.273434 -76.679688 -2.529297 -16.757383 14.472657 0.966797 0.068524 -24.570314 -15.283204 0.576172 -54.951172 51.064453 -123.459206 89.892578 2.968750 -29.677732 -17.792971 -6.953125 1.757812 7.603705 7.810098 2.950026 44.590092 -0.819111 -2.617796 -46.084576 8.057143 0.799938 -58.874210 -17.762609 -7.166433 61.228836 -0.712962 3.165623 -10.538274 5.485651 7.923466 
2.278965 39.134007 -46.388626 4.570313 -0.712891 24.247925 14.931641 3.291016 -1.787109 -14.365233 -2.324219 -2.041412 6.328125 -0.820313 -9.082170 2.919922 6.953065 -9.530151 15.253906 19.746092 1.044921 -103.779297 -107.646484 45.596165 -75.244141 -2.558594 -19.033205 13.613281 1.640625 0.293250 -22.753904 -14.501953 0.627445 -50.859379 58.984379 -115.292961 88.369141 2.958984 -29.658205 -17.939455 -8.212892 2.275390 10.139631 8.745904 3.973834 44.937126 -0.698794 -2.743798 -44.787598 6.895513 -0.659750 -61.116520 -19.323812 -4.544268 52.275269 -0.019617 3.129988 -7.763508 6.301541 7.892005 
2.281909 38.478664 -44.513206 4.912109 0.000000 25.664063 14.580079 2.919922 -2.587393 -13.496094 -3.037110 -2.549345 4.042969 -0.644531 -9.091798 4.150391 6.787109 -9.500799 14.531250 21.513670 1.123047 -89.208984 -100.693359 34.257813 -70.624992 -2.666016 -21.688997 12.216798 2.519531 0.381290 -20.742188 -14.062500 0.585938 -42.490234 67.158203 -102.978516 83.369141 3.066406 -30.117189 -17.392578 -8.281647 2.117960 12.047277 10.320083 4.439310 44.932358 -0.515972 -2.846518 -41.889717 5.203271 -2.619067 -62.168839 -20.729439 -1.419208 43.688313 0.039100 2.779711 -5.175688 8.083014 7.652283 
2.203438 37.901089 -42.411690 5.625000 0.351563 27.587866 13.876953 2.675781 -3.173372 -12.441406 -3.740235 -3.056641 1.074219 -0.322266 -9.638671 5.742188 6.611328 -9.804688 13.974609 23.281252 1.148483 -48.769527 -98.046875 -3.974511 -61.767578 -2.744141 -23.964846 10.478517 4.296875 0.489015 -19.189453 -13.925781 0.607819 -33.916016 73.525391 -90.859772 72.656250 2.978516 -31.845703 -14.111328 -8.203126 1.658763 13.543007 12.381735 4.341920 45.287388 -0.818458 -2.799200 -37.156590 3.944346 -4.284402 -61.314480 -21.981262 1.164627 38.055687 0.517408 2.168242 -3.516254 9.380575 7.694544 
2.070061 37.425781 -40.172073 6.328125 0.351563 29.169897 13.349609 2.714844 -3.349610 -11.923828 -4.628906 -3.222656 -2.236328 -0.185547 -10.351563 7.500000 6.445312 -10.458984 14.199219 25.156250 1.216552 -24.755865 -102.041016 -25.761717 -51.679688 -2.900391 -27.831537 7.607421 8.876952 0.869141 -18.144533 -14.355468 0.527344 -32.763668 78.007813 -88.193573 56.640625 3.105469 -34.248043 -7.861328 -10.800781 0.996094 14.548147 14.910950 4.326621 45.448063 -0.681638 -2.937407 -31.503025 2.459750 -5.968058 -61.075893 -23.005157 1.713183 38.065445 0.517417 2.168704 4.156390 11.573431 6.507475 
